<svg width="275" height="272" viewBox="0 0 275 272" fill="none" xmlns="http://www.w3.org/2000/svg">
<path d="M8.14678 130.711C3.69642 134.84 1.06846 140.567 0.841001 146.633C0.613546 152.7 2.80523 158.608 6.93392 163.058L38.0684 196.618C42.5187 192.49 48.4269 190.298 54.4932 190.526C60.5595 190.753 66.287 193.381 70.4156 197.831C74.5443 202.282 76.736 208.19 76.5086 214.256C76.2811 220.322 73.6531 226.05 69.2028 230.179L100.337 263.739C104.466 268.189 110.193 270.817 116.26 271.044C122.326 271.272 128.234 269.08 132.685 264.952L266.925 140.414C271.375 136.285 274.003 130.558 274.231 124.491C274.458 118.425 272.267 112.517 268.138 108.067L237.004 74.5064C232.553 78.6351 226.645 80.8268 220.579 80.5993C214.512 80.3718 208.785 77.7439 204.656 73.2935C200.528 68.8432 198.336 62.935 198.563 56.8687C198.791 50.8024 201.419 45.0749 205.869 40.9462L174.735 7.38608C170.606 2.93572 164.879 0.307766 158.812 0.0803171C152.746 -0.147142 146.838 2.04454 142.387 6.17322L8.14678 130.711ZM127.983 66.3696L152.244 67.2792L147.089 204.755L122.828 203.846L127.983 66.3696ZM72.165 118.778C80.3873 111.15 93.1645 111.629 100.792 119.851C104.446 123.789 106.386 129.018 106.185 134.387C105.983 139.756 103.658 144.824 99.719 148.478C91.4968 156.106 78.7196 155.627 71.0917 147.405C67.4378 143.466 65.4981 138.238 65.6994 132.869C65.9007 127.5 68.2265 122.431 72.165 118.778ZM175.353 122.647C183.575 115.019 196.352 115.498 203.98 123.72C207.634 127.658 209.574 132.887 209.372 138.256C209.171 143.625 206.845 148.693 202.907 152.347C194.685 159.975 181.907 159.496 174.28 151.274C170.626 147.335 168.686 142.107 168.887 136.738C169.089 131.369 171.414 126.3 175.353 122.647Z" fill="white"/>
</svg>
