<svg width="203" height="151" viewBox="0 0 203 151" fill="none" xmlns="http://www.w3.org/2000/svg">
<path d="M186.532 86.5003C186.532 86.4322 186.532 86.4322 186.532 86.5003C180.957 84.593 172.458 85.2061 171.234 86.0235C169.874 86.8409 168.786 88.1351 167.834 89.4293C165.114 93.0395 162.87 98.0802 161.51 103.529L101.131 109.115C98.8869 104.279 95.5551 99.9874 92.2234 97.399C91.2035 96.6497 90.1835 95.9004 88.9596 95.628C88.6877 95.5598 88.1437 95.5598 87.3957 95.6961C85.2199 89.3612 82.0921 83.2307 78.2164 82.822C70.057 82.0046 55.8461 84.7293 51.9023 92.6989C48.0266 100.6 46.8027 120.422 46.8027 120.422L44.0829 123.147C41.9071 118.992 38.9153 115.382 35.9915 113.134C34.9716 112.385 33.9517 111.635 32.7278 111.363C32.0478 111.159 29.328 111.567 26.4722 112.521C26.3362 112.385 26.2682 112.317 26.1322 112.18C23.4124 109.864 17.8368 108.638 14.7091 114.496C11.5813 120.286 15.321 131.321 17.2249 133.841C18.7208 135.817 20.0807 136.77 20.5566 137.043C22.7325 142.492 26.6762 149.44 32.7278 149.781C36.8754 149.985 41.0231 148.418 43.8789 145.353C47.8226 141.266 48.2306 135.544 46.7347 129.891L47.3467 128.937C47.3467 128.937 48.7746 130.912 54.1462 130.163C56.254 129.823 57.5459 129.141 58.4299 128.392C60.9457 134.863 65.0254 141.334 71.5529 142.288C77.1965 143.173 82.9761 141.539 87.2598 137.792C88.5517 136.702 89.6396 135.408 90.5235 134.114C94.1272 133.91 97.595 132.343 100.111 129.686C102.491 127.166 103.579 124.101 103.715 120.763L111.738 119.809C111.738 119.809 118.945 123.351 127.785 122.807C136.624 122.262 141.928 116.676 141.928 116.676L160.218 115.109C160.558 122.193 163.074 128.733 169.058 132.343C173.681 135.136 179.325 135.681 184.425 133.978C192.856 131.117 194.896 118.583 195.372 110.954C196.256 98.6251 192.38 88.2713 186.532 86.5003Z" fill="black"/>
<path d="M186.532 86.5003C186.532 86.4322 186.532 86.4322 186.532 86.5003ZM186.532 86.5003C180.957 84.593 172.458 85.2061 171.234 86.0235C169.874 86.8409 168.786 88.1351 167.834 89.4293C165.114 93.0395 162.87 98.0802 161.51 103.529L101.131 109.115C98.8869 104.279 95.5551 99.9874 92.2234 97.399C91.2035 96.6497 90.1835 95.9004 88.9596 95.628C88.6877 95.5598 88.1437 95.5598 87.3957 95.6961C85.2199 89.3612 82.0921 83.2307 78.2164 82.822C70.057 82.0046 55.8461 84.7293 51.9023 92.6989C48.0266 100.6 46.8027 120.422 46.8027 120.422L44.0829 123.147C41.9071 118.992 38.9153 115.382 35.9915 113.134C34.9716 112.385 33.9517 111.635 32.7278 111.363C32.0478 111.159 29.328 111.567 26.4722 112.521C26.3362 112.385 26.2682 112.317 26.1322 112.18C23.4124 109.864 17.8368 108.638 14.7091 114.496C11.5813 120.286 15.321 131.321 17.2249 133.841C18.7208 135.817 20.0807 136.77 20.5566 137.043C22.7325 142.492 26.6762 149.44 32.7278 149.781C36.8754 149.985 41.0231 148.418 43.8789 145.353C47.8226 141.266 48.2306 135.544 46.7347 129.891L47.3467 128.937C47.3467 128.937 48.7746 130.912 54.1462 130.163C56.254 129.823 57.5459 129.141 58.4299 128.392C60.9457 134.863 65.0254 141.334 71.5529 142.288C77.1965 143.173 82.9761 141.539 87.2598 137.792C88.5517 136.702 89.6396 135.408 90.5235 134.114C94.1272 133.91 97.595 132.343 100.111 129.686C102.491 127.166 103.579 124.101 103.715 120.763L111.738 119.809C111.738 119.809 118.945 123.351 127.785 122.807C136.624 122.262 141.928 116.676 141.928 116.676L160.218 115.109C160.558 122.193 163.074 128.733 169.058 132.343C173.681 135.136 179.325 135.681 184.425 133.978C192.856 131.117 194.896 118.583 195.372 110.954C196.256 98.6251 192.38 88.2713 186.532 86.5003Z" stroke="black" stroke-width="0.75" stroke-miterlimit="10" stroke-linecap="round" stroke-linejoin="round"/>
<path d="M74.8167 138.269C74.0687 139.155 73.2528 139.904 72.2328 140.381" stroke="white" stroke-width="0.5" stroke-miterlimit="10" stroke-linecap="round" stroke-linejoin="round"/>
<path d="M78.0804 122.125C78.0804 122.125 78.8964 130.981 75.9046 136.566" stroke="white" stroke-width="0.5" stroke-miterlimit="10" stroke-linecap="round" stroke-linejoin="round"/>
<path d="M80.4603 131.866C79.7123 135.272 78.1484 138.542 75.2246 140.04" stroke="white" stroke-width="0.5" stroke-miterlimit="10" stroke-linecap="round" stroke-linejoin="round"/>
<path d="M84.2 121.444C84.2 121.444 85.5599 136.157 78.2844 139.7" stroke="white" stroke-width="0.5" stroke-miterlimit="10" stroke-linecap="round" stroke-linejoin="round"/>
<path d="M87.1917 121.104C87.1917 121.104 88.5517 135.817 81.2762 139.359" stroke="white" stroke-width="0.5" stroke-miterlimit="10" stroke-linecap="round" stroke-linejoin="round"/>
<path d="M178.985 131.389C178.169 132.411 177.217 133.228 176.129 133.841" stroke="white" stroke-width="0.5" stroke-miterlimit="10" stroke-linecap="round" stroke-linejoin="round"/>
<path d="M184.425 112.998C184.425 112.998 184.017 123.079 180.277 129.482" stroke="white" stroke-width="0.5" stroke-miterlimit="10" stroke-linecap="round" stroke-linejoin="round"/>
<path d="M185.377 124.169C184.153 128.052 182.181 131.798 179.121 133.433" stroke="white" stroke-width="0.5" stroke-miterlimit="10" stroke-linecap="round" stroke-linejoin="round"/>
<path d="M190.476 112.248C190.476 112.248 189.728 129.005 182.181 133.024" stroke="white" stroke-width="0.5" stroke-miterlimit="10" stroke-linecap="round" stroke-linejoin="round"/>
<path d="M193.468 111.908C193.468 111.908 192.72 128.665 185.173 132.683" stroke="white" stroke-width="0.5" stroke-miterlimit="10" stroke-linecap="round" stroke-linejoin="round"/>
<path d="M34.6316 147.329C34.0877 148.214 33.3397 148.963 32.3878 149.508" stroke="white" stroke-width="0.5" stroke-miterlimit="10" stroke-linecap="round" stroke-linejoin="round"/>
<path d="M35.7196 133.024C35.7196 133.024 37.6234 140.517 35.4476 145.762" stroke="white" stroke-width="0.5" stroke-miterlimit="10" stroke-linecap="round" stroke-linejoin="round"/>
<path d="M39.2553 141.062C38.9833 144.127 37.8954 147.124 35.2436 148.827" stroke="white" stroke-width="0.5" stroke-miterlimit="10" stroke-linecap="round" stroke-linejoin="round"/>
<path d="M41.4311 131.594C41.4311 131.594 44.6269 144.059 38.0994 148.146" stroke="white" stroke-width="0.5" stroke-miterlimit="10" stroke-linecap="round" stroke-linejoin="round"/>
<path d="M44.2869 130.844C44.2869 130.844 47.4827 143.242 40.9552 147.397" stroke="white" stroke-width="0.5" stroke-miterlimit="10" stroke-linecap="round" stroke-linejoin="round"/>
<path d="M67.7452 117.017C69.3771 126.281 68.3572 134.182 65.5014 134.727C62.6456 135.204 59.0418 128.12 57.4099 118.856C55.7781 109.592 56.798 101.69 59.6538 101.145C62.5096 100.669 66.1133 107.753 67.7452 117.017Z" fill="#6ABD50" stroke="black" stroke-miterlimit="10" stroke-linecap="round" stroke-linejoin="round"/>
<path d="M66.3173 117.221C66.7932 120.763 66.3173 123.76 65.3653 123.896C64.4134 124.033 63.2575 121.24 62.7815 117.698C62.3056 114.156 62.7815 111.159 63.7335 111.022C64.6854 110.886 65.8413 113.679 66.3173 117.221Z" fill="#6ABD50" stroke="black" stroke-miterlimit="10" stroke-linecap="round" stroke-linejoin="round"/>
<path d="M59.5178 108.774C59.6538 107.344 59.8578 106.186 60.0617 105.232" stroke="black" stroke-width="0.75" stroke-miterlimit="10" stroke-linecap="round" stroke-linejoin="round"/>
<path d="M64.0055 131.389C62.6456 128.665 60.8777 124.373 59.9938 119.469C59.4498 116.199 59.2458 113.134 59.3818 110.546" stroke="black" stroke-width="0.75" stroke-miterlimit="10" stroke-linecap="round" stroke-linejoin="round"/>
<path d="M27.7035 144.634C29.7663 144.061 29.9429 138.189 28.0981 131.519C26.2532 124.848 23.0854 119.904 21.0226 120.477C18.9598 121.049 18.7831 126.921 20.628 133.592C22.4729 140.263 25.6407 145.206 27.7035 144.634Z" fill="#6ABD50" stroke="black" stroke-miterlimit="10" stroke-linecap="round" stroke-linejoin="round"/>
<path d="M27.4241 131.73C28.0361 134.25 28.0361 136.43 27.3561 136.634C26.6762 136.839 25.5883 134.931 24.9083 132.343C24.2964 129.823 24.2964 127.643 24.9763 127.438C25.7243 127.302 26.8122 129.21 27.4241 131.73Z" stroke="black" stroke-width="0.75" stroke-miterlimit="10" stroke-linecap="round" stroke-linejoin="round"/>
<path d="M21.7126 126.212C21.6446 125.191 21.7126 124.305 21.7805 123.624" stroke="black" stroke-width="0.75" stroke-miterlimit="10" stroke-linecap="round" stroke-linejoin="round"/>
<path d="M27.0162 142.22C25.7923 140.381 24.0924 137.452 23.0724 133.91C22.3925 131.594 21.9845 129.414 21.8485 127.507" stroke="black" stroke-width="0.75" stroke-miterlimit="10" stroke-linecap="round" stroke-linejoin="round"/>
<path d="M173.477 17.7024C166.338 2.92102 163.21 1.6268 158.451 1.35433C153.691 1.14998 142.404 -0.280468 129.893 1.69492C129.893 1.69492 94.9432 1.08187 67.8812 17.498C39.5953 34.6634 25.8603 49.7172 23.9564 57.5507C22.0526 65.3841 15.457 85.6829 12.3293 97.3309C9.20149 108.979 7.09365 119.264 11.0374 128.733C13.4172 134.455 16.001 136.157 19.2648 136.157C18.7888 135.34 18.3808 134.455 17.9049 133.365C14.6411 125.259 15.0491 113.679 18.7888 112.93C22.5285 112.18 24.7724 119.946 27.0162 128.392C27.7641 131.185 28.3761 132.82 28.8521 133.841C34.4276 131.73 43.335 127.03 55.1661 122.125C54.4182 116.948 53.6702 108.911 55.0981 99.715C56.866 88.067 64.2775 85.5467 67.4732 92.5627C70.125 98.4207 71.145 111.431 71.4169 115.859C76.1766 114.224 80.1883 113.134 82.6361 112.998C82.6361 112.998 123.229 103.802 153.147 103.053C183.065 102.303 198.024 101.622 198.024 101.622C198.024 101.622 180.617 32.4837 173.477 17.7024Z" fill="white"/>
<mask id="mask0_406_5116" style="mask-type:luminance" maskUnits="userSpaceOnUse" x="8" y="0" width="191" height="137">
<path d="M173.477 17.7024C166.338 2.92102 163.21 1.6268 158.451 1.35433C153.691 1.14998 142.404 -0.280468 129.893 1.69492C129.893 1.69492 94.9432 1.08187 67.8812 17.498C39.5953 34.6634 25.8603 49.7172 23.9564 57.5507C22.0526 65.3841 15.457 85.6829 12.3293 97.3309C9.20149 108.979 7.09365 119.264 11.0374 128.733C13.4172 134.455 16.001 136.157 19.2648 136.157C18.7888 135.34 18.3808 134.455 17.9049 133.365C14.6411 125.259 15.0491 113.679 18.7888 112.93C22.5285 112.18 24.7724 119.946 27.0162 128.392C27.7641 131.185 28.3761 132.82 28.8521 133.841C34.4276 131.73 43.335 127.03 55.1661 122.125C54.4182 116.948 53.6702 108.911 55.0981 99.715C56.866 88.067 64.2775 85.5467 67.4732 92.5627C70.125 98.4207 71.145 111.431 71.4169 115.859C76.1766 114.224 80.1883 113.134 82.6361 112.998C82.6361 112.998 123.229 103.802 153.147 103.053C183.065 102.303 198.024 101.622 198.024 101.622C198.024 101.622 180.617 32.4837 173.477 17.7024Z" fill="white"/>
</mask>
<g mask="url(#mask0_406_5116)">
<path d="M77.8765 89.225C77.8765 89.225 73.7968 94.8787 68.7651 96.1048C70.533 102.576 71.281 112.248 71.4849 115.859C75.7006 114.428 79.3724 113.338 81.8202 113.066C82.1602 110.954 82.4321 109.592 82.4321 109.592L77.8765 89.225Z" fill="#6ABD50"/>
</g>
<mask id="mask1_406_5116" style="mask-type:luminance" maskUnits="userSpaceOnUse" x="8" y="0" width="191" height="137">
<path d="M173.477 17.7024C166.338 2.92102 163.21 1.6268 158.451 1.35433C153.691 1.14998 142.404 -0.280468 129.893 1.69492C129.893 1.69492 94.9432 1.08187 67.8812 17.498C39.5953 34.6634 25.8603 49.7172 23.9564 57.5507C22.0526 65.3841 15.457 85.6829 12.3293 97.3309C9.20149 108.979 7.09365 119.264 11.0374 128.733C13.4172 134.455 16.001 136.157 19.2648 136.157C18.7888 135.34 18.3808 134.455 17.9049 133.365C14.6411 125.259 15.0491 113.679 18.7888 112.93C22.5285 112.18 24.7724 119.946 27.0162 128.392C27.7641 131.185 28.3761 132.82 28.8521 133.841C34.4276 131.73 43.335 127.03 55.1661 122.125C54.4182 116.948 53.6702 108.911 55.0981 99.715C56.866 88.067 64.2775 85.5467 67.4732 92.5627C70.125 98.4207 71.145 111.431 71.4169 115.859C76.1766 114.224 80.1883 113.134 82.6361 112.998C82.6361 112.998 123.229 103.802 153.147 103.053C183.065 102.303 198.024 101.622 198.024 101.622C198.024 101.622 180.617 32.4837 173.477 17.7024Z" fill="white"/>
</mask>
<g mask="url(#mask1_406_5116)">
<path opacity="0.2" d="M27.2202 129.005C29.124 129.21 30.3479 130.027 34.2237 129.073C41.0232 127.37 36.1275 114.224 47.4147 108.843C50.1345 107.548 52.4463 107.003 54.4182 106.867C54.5542 104.551 54.7582 102.167 55.0981 99.715C55.5061 96.9903 56.2541 94.7424 57.138 92.9714C54.0782 92.0177 53.5342 91.1322 48.2306 93.6526C36.9435 99.0338 38.6433 112.861 31.8438 114.564C26.4722 115.927 26.1323 113.747 22.0526 114.769C23.9564 117.493 25.4523 122.807 26.9482 128.392C27.0842 128.528 27.1522 128.733 27.2202 129.005Z" fill="#6ABD50"/>
</g>
<mask id="mask2_406_5116" style="mask-type:luminance" maskUnits="userSpaceOnUse" x="8" y="0" width="191" height="137">
<path d="M173.477 17.7024C166.338 2.92102 163.21 1.6268 158.451 1.35433C153.691 1.14998 142.404 -0.280468 129.893 1.69492C129.893 1.69492 94.9432 1.08187 67.8812 17.498C39.5953 34.6634 25.8603 49.7172 23.9564 57.5507C22.0526 65.3841 15.457 85.6829 12.3293 97.3309C9.20149 108.979 7.09365 119.264 11.0374 128.733C13.4172 134.455 16.001 136.157 19.2648 136.157C18.7888 135.34 18.3808 134.455 17.9049 133.365C14.6411 125.259 15.0491 113.679 18.7888 112.93C22.5285 112.18 24.7724 119.946 27.0162 128.392C27.7641 131.185 28.3761 132.82 28.8521 133.841C34.4276 131.73 43.335 127.03 55.1661 122.125C54.4182 116.948 53.6702 108.911 55.0981 99.715C56.866 88.067 64.2775 85.5467 67.4732 92.5627C70.125 98.4207 71.145 111.431 71.4169 115.859C76.1766 114.224 80.1883 113.134 82.6361 112.998C82.6361 112.998 123.229 103.802 153.147 103.053C183.065 102.303 198.024 101.622 198.024 101.622C198.024 101.622 180.617 32.4837 173.477 17.7024Z" fill="white"/>
</mask>
<g mask="url(#mask2_406_5116)">
<path opacity="0.2" d="M16.137 117.357C12.9412 119.537 11.1053 122.807 10.0174 125.599C10.2894 126.689 10.6974 127.711 11.1053 128.801C13.4852 134.523 16.069 136.226 19.3327 136.226C18.8568 135.408 18.4488 134.523 17.9728 133.433C15.933 128.188 15.321 121.649 16.137 117.357Z" fill="#6ABD50"/>
</g>
<mask id="mask3_406_5116" style="mask-type:luminance" maskUnits="userSpaceOnUse" x="8" y="0" width="191" height="137">
<path d="M173.477 17.7024C166.338 2.92102 163.21 1.6268 158.451 1.35433C153.691 1.14998 142.404 -0.280468 129.893 1.69492C129.893 1.69492 94.9432 1.08187 67.8812 17.498C39.5953 34.6634 25.8603 49.7172 23.9564 57.5507C22.0526 65.3841 15.457 85.6829 12.3293 97.3309C9.20149 108.979 7.09365 119.264 11.0374 128.733C13.4172 134.455 16.001 136.157 19.2648 136.157C18.7888 135.34 18.3808 134.455 17.9049 133.365C14.6411 125.259 15.0491 113.679 18.7888 112.93C22.5285 112.18 24.7724 119.946 27.0162 128.392C27.7641 131.185 28.3761 132.82 28.8521 133.841C34.4276 131.73 43.335 127.03 55.1661 122.125C54.4182 116.949 53.6702 108.911 55.0981 99.715C56.866 88.067 64.2775 85.5467 67.4732 92.5627C70.125 98.4207 71.145 111.431 71.4169 115.859C76.1766 114.224 80.1883 113.134 82.6361 112.998C82.6361 112.998 123.229 103.802 153.147 103.053C183.065 102.303 198.024 101.622 198.024 101.622C198.024 101.622 180.617 32.4837 173.477 17.7024Z" fill="white"/>
</mask>
<g mask="url(#mask3_406_5116)">
<path opacity="0.2" d="M158.451 1.35434C158.111 1.35434 157.635 1.28622 157.227 1.28622C107.658 14.0241 87.4638 73.8987 80.5283 102.712C80.8682 105.573 81.2762 108.366 81.7522 111.159C82.5681 111.022 82.0242 112.998 82.6361 112.93C82.6361 112.93 123.229 103.734 153.147 102.985C183.065 102.235 198.024 101.554 198.024 101.554C198.024 101.554 180.685 32.4837 173.545 17.7024C166.338 2.85291 163.21 1.55869 158.451 1.35434Z" fill="#6ABD50"/>
</g>
<path d="M173.477 17.7024C166.338 2.92102 163.21 1.6268 158.451 1.35433C153.691 1.14998 142.404 -0.280468 129.893 1.69492C129.893 1.69492 94.9432 1.08187 67.8812 17.498C39.5953 34.6634 25.8603 49.7172 23.9564 57.5507C22.0526 65.3841 15.457 85.6829 12.3293 97.3309C9.20149 108.979 7.09365 119.264 11.0374 128.733C13.4172 134.455 16.001 136.157 19.2648 136.157C18.7888 135.34 18.3808 134.455 17.9049 133.365C14.6411 125.259 15.0491 113.679 18.7888 112.93C22.5285 112.18 24.7724 119.946 27.0162 128.392C27.7641 131.185 28.3761 132.82 28.8521 133.841C34.4276 131.73 43.335 127.03 55.1661 122.125C54.4182 116.948 53.6702 108.911 55.0981 99.715C56.866 88.067 64.2775 85.5467 67.4732 92.5627C70.125 98.4207 71.145 111.431 71.4169 115.859C76.1766 114.224 80.1883 113.134 82.6361 112.998C82.6361 112.998 123.229 103.802 153.147 103.053C183.065 102.303 198.024 101.622 198.024 101.622C198.024 101.622 180.617 32.4837 173.477 17.7024Z" stroke="black" stroke-miterlimit="10" stroke-linecap="round" stroke-linejoin="round"/>
<path opacity="0.2" d="M25.0443 92.4946C25.0443 92.4946 26.3362 93.7888 28.4441 92.9033C30.5519 92.0178 30.8239 88.8163 30.8239 88.8163L34.0197 88.6119L34.6316 78.5306L27.5602 81.3234C27.6282 81.3234 25.7243 91.2004 25.0443 92.4946Z" fill="#6ABD50"/>
<g clip-path="url(#clip0_406_5116)">
<rect width="85.726" height="51.3325" rx="20" transform="matrix(0.995659 -0.093075 0.109992 0.993932 81 11.979)" fill="#051A00"/>
<g clip-path="url(#clip1_406_5116)">
<path d="M113.653 42.5382L92.0684 44.4081L94.097 64.1883L115.682 62.3183L113.653 42.5382Z" fill="#1C9102"/>
<path d="M111.352 45.0852L94.8464 46.5152L96.3977 61.6412L112.903 60.2112L111.352 45.0852Z" fill="#156503"/>
<path d="M109.858 47.1711L96.7382 48.3078L97.9712 60.331L111.091 59.1944L109.858 47.1711Z" fill="#1C9102"/>
<path d="M136.93 40.5215L115.346 42.3915L117.374 62.1716L138.959 60.3017L136.93 40.5215Z" fill="#1C9102"/>
<path d="M134.63 43.0686L118.124 44.4986L119.675 59.6246L136.181 58.1946L134.63 43.0686Z" fill="#156503"/>
<path d="M133.136 45.1545L120.016 46.2911L121.249 58.3144L134.369 57.1777L133.136 45.1545Z" fill="#1C9102"/>
<path d="M123.012 21.3802L101.427 23.2501L103.456 43.0303L125.04 41.1603L123.012 21.3802Z" fill="#1C9102"/>
<path d="M120.711 23.9272L104.205 25.3572L105.756 40.4832L122.262 39.0532L120.711 23.9272Z" fill="#156503"/>
<path d="M119.6 25.5886L106.48 26.7253L107.713 38.7485L120.833 37.6118L119.6 25.5886Z" fill="#1C9102"/>
</g>
<g clip-path="url(#clip2_406_5116)">
<path d="M137.564 36.3719L109.642 38.7908L112.234 64.0585L140.155 61.6396L137.564 36.3719Z" fill="#6ABD50"/>
<path d="M134.584 39.6291L113.232 41.4789L115.214 60.8013L136.565 58.9515L134.584 39.6291Z" fill="#1C9102"/>
<path d="M132.648 42.296L115.676 43.7664L117.251 59.1252L134.223 57.6549L132.648 42.296Z" fill="#6ABD50"/>
<path d="M167.675 33.7632L139.754 36.1821L142.345 61.4499L170.266 59.0309L167.675 33.7632Z" fill="#6ABD50"/>
<path d="M164.695 37.0204L143.343 38.8702L145.325 58.1926L166.677 56.3428L164.695 37.0204Z" fill="#1C9102"/>
<path d="M162.759 39.6874L145.787 41.1577L147.362 56.5165L164.334 55.0462L162.759 39.6874Z" fill="#6ABD50"/>
<path d="M149.703 9.32806L121.782 11.747L124.373 37.0147L152.295 34.5958L149.703 9.32806Z" fill="#6ABD50"/>
<path d="M146.723 12.5853L125.372 14.4351L127.353 33.7575L148.705 31.9077L146.723 12.5853Z" fill="#1C9102"/>
<path d="M145.284 14.7094L128.312 16.1797L129.887 31.5385L146.859 30.0682L145.284 14.7094Z" fill="#6ABD50"/>
</g>
<rect x="79.1519" y="-5" width="58.4439" height="71.6936" transform="rotate(12.2011 79.1519 -5)" fill="white" fill-opacity="0.4"/>
</g>
<rect x="1.10565" y="0.900857" width="83.726" height="49.3325" rx="19" transform="matrix(0.995659 -0.093075 0.109992 0.993932 80.9057 12.0873)" stroke="#051A00" stroke-width="2"/>
<path d="M15.797 121.989C14.5731 122.67 11.9893 124.169 10.0854 125.804C10.3574 126.757 10.6974 127.779 11.1053 128.733C13.4852 134.455 16.069 136.157 19.3327 136.157C18.8568 135.34 18.4488 134.455 17.9728 133.365C16.5449 129.823 15.865 125.667 15.797 121.989Z" fill="black" stroke="black" stroke-width="0.75" stroke-miterlimit="10" stroke-linecap="round" stroke-linejoin="round"/>
<path d="M26.6082 116.335C26.2682 116.335 25.9283 116.131 25.7243 115.791C25.4523 115.314 25.6563 114.701 26.1322 114.428C26.2682 114.36 39.5273 106.118 50.4745 100.26C50.9504 99.9874 51.5624 100.192 51.8344 100.669C52.1063 101.145 51.9024 101.758 51.4264 102.031C40.4792 107.889 27.2202 116.063 27.0842 116.131C26.9482 116.335 26.7442 116.335 26.6082 116.335Z" fill="black" stroke="black" stroke-miterlimit="10"/>
<path d="M120.033 80.8466C120.033 80.8466 143.152 76.419 158.995 76.6915L159.946 80.506C159.946 80.506 126.697 82.0727 120.373 85.2742L120.033 80.8466Z" fill="black" stroke="black" stroke-width="0.75" stroke-miterlimit="10" stroke-linecap="round" stroke-linejoin="round"/>
<path d="M120.305 85.2742L120.985 89.0887C121.121 89.9742 121.937 90.5873 122.821 90.4511C128.601 89.6337 148.999 86.8409 159.538 87.0452C160.626 87.0452 161.51 86.0235 161.17 84.9336L159.878 80.506" stroke="black" stroke-miterlimit="10" stroke-linecap="round" stroke-linejoin="round"/>
<path d="M35.9915 78.5307L35.8556 62.7957L36.6035 46.5839C36.6035 45.9027 35.7876 45.494 35.3116 46.039C32.3878 49.0361 27.3562 53.5999 25.9283 57.2782C24.0244 62.1145 21.7126 85.8191 21.7126 85.8191L35.9915 78.5307Z" fill="black" stroke="black" stroke-width="0.75" stroke-miterlimit="10" stroke-linecap="round" stroke-linejoin="round"/>
<path d="M17.8369 91.3366H15.593C14.4371 91.3366 13.4852 90.383 13.4852 89.225V77.5089C13.4852 76.3509 14.4371 75.3973 15.593 75.3973H17.8369C18.9928 75.3973 19.9447 76.3509 19.9447 77.5089V89.2931C19.9447 90.383 18.9928 91.3366 17.8369 91.3366Z" fill="black" stroke="black" stroke-width="0.75" stroke-miterlimit="10" stroke-linecap="round" stroke-linejoin="round"/>
<path d="M19.2647 64.3624C19.2647 64.3624 21.1006 64.7029 22.3925 65.316C23.6844 65.929 24.6363 66.9508 24.6363 66.9508L28.0361 62.4551C28.0361 62.4551 23.0725 60.3435 22.1205 59.1174C21.1686 57.8231 21.1686 57.8232 21.1686 57.8232L19.2647 64.3624Z" fill="white"/>
<mask id="mask4_406_5116" style="mask-type:luminance" maskUnits="userSpaceOnUse" x="19" y="57" width="10" height="10">
<path d="M19.2647 64.3624C19.2647 64.3624 21.1006 64.7029 22.3925 65.316C23.6844 65.929 24.6363 66.9508 24.6363 66.9508L28.0361 62.4551C28.0361 62.4551 23.0725 60.3435 22.1205 59.1174C21.1686 57.8231 21.1686 57.8232 21.1686 57.8232L19.2647 64.3624Z" fill="white"/>
</mask>
<g mask="url(#mask4_406_5116)">
<path opacity="0.5" d="M22.1205 59.1174C21.5766 58.3681 21.3046 58.0275 21.2366 57.8913L21.1006 57.9594L19.1967 64.3624C19.1967 64.3624 19.5367 64.4305 20.0807 64.5667L24.9083 61.0246C23.8204 60.4116 22.5965 59.6623 22.1205 59.1174Z" fill="#6ABD50"/>
</g>
<path d="M19.2647 64.3624C19.2647 64.3624 21.1006 64.7029 22.3925 65.316C23.6844 65.929 24.6363 66.9508 24.6363 66.9508L28.0361 62.4551C28.0361 62.4551 23.0725 60.3435 22.1205 59.1174C21.1686 57.8231 21.1686 57.8232 21.1686 57.8232L19.2647 64.3624Z" stroke="black" stroke-width="0.75" stroke-miterlimit="10" stroke-linecap="round" stroke-linejoin="round"/>
<path d="M26.4722 60.5478L22.3245 65.8609L22.8685 67.7001L29.192 61.0927L26.4722 60.5478Z" fill="#6ABD50" stroke="black" stroke-miterlimit="10" stroke-linecap="round" stroke-linejoin="round"/>
<path d="M19.8087 45.5621C17.0209 43.3824 9.67746 44.7447 8.24956 49.9216C7.36563 53.055 7.84159 57.8913 7.84159 57.8913L16.205 56.1202C16.409 56.4608 16.6129 56.7333 16.8849 57.142C18.2448 59.1855 21.1686 57.8232 21.9166 57.142C22.3245 56.8014 22.3245 55.7115 22.1885 54.826L22.5285 54.7579C22.5285 54.7579 22.5965 47.7419 19.8087 45.5621Z" fill="black" stroke="black" stroke-width="0.75" stroke-miterlimit="10" stroke-linecap="round" stroke-linejoin="round"/>
<path d="M16.6809 55.5072C16.6809 55.5072 11.2413 54.7579 5.80174 56.5289C0.362135 58.3681 -0.453805 59.9348 3.42191 59.8666C7.29763 59.7985 16.6809 55.5072 16.6809 55.5072Z" fill="black" stroke="black" stroke-width="0.75" stroke-miterlimit="10" stroke-linecap="round" stroke-linejoin="round"/>
<path d="M10.0174 53.5318C10.6558 53.5318 11.1733 52.8304 11.1733 51.9651C11.1733 51.0998 10.6558 50.3984 10.0174 50.3984C9.37903 50.3984 8.86151 51.0998 8.86151 51.9651C8.86151 52.8304 9.37903 53.5318 10.0174 53.5318Z" fill="#6ABD50"/>
<path d="M35.8555 62.7957C35.8555 62.7957 28.3761 60.8884 26.1323 62.6594C23.8884 64.4305 23.2765 67.2914 24.0244 70.7653C24.7724 74.2393 26.5402 83.435 26.5402 83.435L36.0595 78.5306L35.8555 62.7957Z" fill="black" stroke="black" stroke-width="0.75" stroke-miterlimit="10" stroke-linecap="round" stroke-linejoin="round"/>
<path d="M24.0244 82.0046C24.0244 82.0046 23.6164 85.5467 23.1405 86.0235C22.6645 86.5003 10.2894 76.0784 9.54146 75.1248C8.79352 74.1712 9.33748 70.6291 9.54146 69.5392C9.74545 68.4494 9.40547 67.8363 8.18156 68.5856C6.95765 69.3349 7.29763 72.4683 7.29763 72.4683C7.29763 72.4683 3.62589 71.5827 2.94594 71.5146C2.198 71.3784 1.58604 72.332 1.72203 73.0132C1.85802 73.7625 2.80996 73.7625 2.80996 73.7625C2.80996 73.7625 2.40199 75.6016 3.01394 76.8958C3.6259 78.1901 4.37384 79.0756 5.73374 79.348C7.09364 79.6886 9.94943 79.6205 9.94943 79.6205C9.94943 79.6205 16.273 85.6829 18.1768 87.9308C20.0807 90.1786 23.8884 93.2439 25.7923 92.6989C27.6961 92.154 29.532 82.5495 29.532 82.5495L24.0244 82.0046Z" fill="white"/>
<mask id="mask5_406_5116" style="mask-type:luminance" maskUnits="userSpaceOnUse" x="1" y="68" width="29" height="25">
<path d="M24.0244 82.0046C24.0244 82.0046 23.6164 85.5467 23.1405 86.0235C22.6645 86.5003 10.2894 76.0784 9.54146 75.1248C8.79352 74.1712 9.33748 70.6291 9.54146 69.5392C9.74545 68.4494 9.40547 67.8363 8.18156 68.5856C6.95765 69.3349 7.29763 72.4683 7.29763 72.4683C7.29763 72.4683 3.62589 71.5827 2.94594 71.5146C2.198 71.3784 1.58604 72.332 1.72203 73.0132C1.85802 73.7625 2.80996 73.7625 2.80996 73.7625C2.80996 73.7625 2.40199 75.6016 3.01394 76.8958C3.6259 78.1901 4.37384 79.0756 5.73374 79.348C7.09364 79.6886 9.94943 79.6205 9.94943 79.6205C9.94943 79.6205 16.273 85.6829 18.1768 87.9308C20.0807 90.1786 23.8884 93.2439 25.7923 92.6989C27.6961 92.154 29.532 82.5495 29.532 82.5495L24.0244 82.0046Z" fill="white"/>
</mask>
<g mask="url(#mask5_406_5116)">
<path opacity="0.5" d="M23.1405 86.0235L26.7442 87.2496C26.7442 87.2496 27.2202 89.9061 24.5004 90.7917C22.9365 91.3366 20.0127 89.4974 17.9728 87.9989L18.0408 88.067C19.9447 90.3148 23.7524 93.3801 25.6563 92.8352C27.5601 92.2902 29.396 82.6858 29.396 82.6858L23.8884 82.0046C24.0244 82.0046 23.6164 85.5467 23.1405 86.0235Z" fill="#6ABD50"/>
</g>
<path d="M24.0244 82.0046C24.0244 82.0046 23.6164 85.5467 23.1405 86.0235C22.6645 86.5003 10.2894 76.0784 9.54146 75.1248C8.79352 74.1712 9.33748 70.6291 9.54146 69.5392C9.74545 68.4494 9.40547 67.8363 8.18156 68.5856C6.95765 69.3349 7.29763 72.4683 7.29763 72.4683C7.29763 72.4683 3.62589 71.5827 2.94594 71.5146C2.198 71.3784 1.58604 72.332 1.72203 73.0132C1.85802 73.7625 2.80996 73.7625 2.80996 73.7625C2.80996 73.7625 2.40199 75.6016 3.01394 76.8958C3.6259 78.1901 4.37384 79.0756 5.73374 79.348C7.09364 79.6886 9.94943 79.6205 9.94943 79.6205C9.94943 79.6205 16.273 85.6829 18.1768 87.9308C20.0807 90.1786 23.8884 93.2439 25.7923 92.6989C27.6961 92.154 29.532 82.5495 29.532 82.5495L24.0244 82.0046Z" stroke="black" stroke-width="0.75" stroke-miterlimit="10" stroke-linecap="round" stroke-linejoin="round"/>
<path d="M11.6493 77.0321L9.88144 79.7567L10.7654 80.3698L12.6012 77.7814L11.6493 77.0321Z" fill="black" stroke="black" stroke-miterlimit="10"/>
<path d="M11.0373 79.5524C11.4129 79.5524 11.7173 79.2474 11.7173 78.8712C11.7173 78.495 11.4129 78.1901 11.0373 78.1901C10.6618 78.1901 10.3574 78.495 10.3574 78.8712C10.3574 79.2474 10.6618 79.5524 11.0373 79.5524Z" fill="white" stroke="black" stroke-width="0.75" stroke-miterlimit="10" stroke-linecap="round" stroke-linejoin="round"/>
<path d="M9.40546 58.7768C9.40546 58.7768 9.81343 59.7985 10.4934 61.6377C11.1733 63.4087 14.9131 67.2233 16.7489 67.4957C18.5848 67.7001 20.7606 61.0928 21.1006 59.7304C21.2366 59.2536 21.3046 58.5724 21.3046 58.5724C21.3046 58.5724 23.6164 57.4826 23.0725 56.1883C22.5285 54.8941 21.4406 54.2811 20.9646 54.6898C20.4886 55.0985 20.3527 56.8014 19.6047 56.8014C18.8568 56.8014 18.4488 56.597 17.7688 55.6434C17.0889 54.6898 10.0854 56.5289 9.40546 58.7768Z" fill="white"/>
<mask id="mask6_406_5116" style="mask-type:luminance" maskUnits="userSpaceOnUse" x="9" y="54" width="15" height="14">
<path d="M9.40546 58.7768C9.40546 58.7768 9.81343 59.7985 10.4934 61.6377C11.1733 63.4087 14.9131 67.2233 16.7489 67.4957C18.5848 67.7001 20.7606 61.0928 21.1006 59.7304C21.2366 59.2536 21.3046 58.5724 21.3046 58.5724C21.3046 58.5724 23.6164 57.4826 23.0725 56.1883C22.5285 54.8941 21.4406 54.2811 20.9646 54.6898C20.4886 55.0985 20.3527 56.8014 19.6047 56.8014C18.8568 56.8014 18.4488 56.597 17.7688 55.6434C17.0889 54.6898 10.0854 56.5289 9.40546 58.7768Z" fill="white"/>
</mask>
<g mask="url(#mask6_406_5116)">
<path opacity="0.5" d="M17.7688 55.5753C17.0889 54.6898 10.1534 56.5289 9.40546 58.7768C9.40546 58.7768 9.54145 59.1174 9.81343 59.7985C11.1053 58.9811 14.5731 57.142 18.3808 56.2565C18.1768 56.1202 17.9728 55.8478 17.7688 55.5753Z" fill="#6ABD50"/>
</g>
<mask id="mask7_406_5116" style="mask-type:luminance" maskUnits="userSpaceOnUse" x="9" y="54" width="15" height="14">
<path d="M9.40546 58.7768C9.40546 58.7768 9.81343 59.7985 10.4934 61.6377C11.1733 63.4087 14.9131 67.2233 16.7489 67.4957C18.5848 67.7001 20.7606 61.0928 21.1006 59.7304C21.2366 59.2536 21.3046 58.5724 21.3046 58.5724C21.3046 58.5724 23.6164 57.4826 23.0725 56.1883C22.5285 54.8941 21.4406 54.2811 20.9646 54.6898C20.4886 55.0985 20.3527 56.8014 19.6047 56.8014C18.8568 56.8014 18.4488 56.597 17.7688 55.6434C17.0889 54.6898 10.0854 56.5289 9.40546 58.7768Z" fill="white"/>
</mask>
<g mask="url(#mask7_406_5116)">
<path opacity="0.5" d="M23.0045 55.9159C22.4605 54.7579 21.4406 54.213 20.9646 54.6217C20.6926 54.826 20.5566 55.4391 20.2847 55.984C21.2366 55.8478 22.1205 55.8478 23.0045 55.9159Z" fill="#6ABD50"/>
</g>
<path d="M9.40546 58.7768C9.40546 58.7768 9.81343 59.7985 10.4934 61.6377C11.1733 63.4087 14.9131 67.2233 16.7489 67.4957C18.5848 67.7001 20.7606 61.0928 21.1006 59.7304C21.2366 59.2536 21.3046 58.5724 21.3046 58.5724C21.3046 58.5724 23.6164 57.4826 23.0725 56.1883C22.5285 54.8941 21.4406 54.2811 20.9646 54.6898C20.4886 55.0985 20.3527 56.8014 19.6047 56.8014C18.8568 56.8014 18.4488 56.597 17.7688 55.6434C17.0889 54.6898 10.0854 56.5289 9.40546 58.7768Z" stroke="black" stroke-width="0.75" stroke-miterlimit="10" stroke-linecap="round" stroke-linejoin="round"/>
<path d="M11.8533 59.2536C11.9893 59.6623 11.9213 60.071 11.7853 60.071C11.6493 60.1391 11.3773 59.7985 11.2413 59.3898C11.1053 58.9811 11.1733 58.5724 11.3093 58.5724C11.5133 58.5724 11.7173 58.8449 11.8533 59.2536Z" fill="black" stroke="black" stroke-miterlimit="10"/>
<path d="M10.6294 58.0956C11.5813 57.8232 11.9893 58.5725 12.1253 59.1855L12.3292 60.0029L12.9412 63L13.8251 62.5913" stroke="black" stroke-width="0.5" stroke-miterlimit="10" stroke-linecap="round" stroke-linejoin="round"/>
<path d="M14.4371 58.3681C14.4371 58.3681 14.9811 57.6869 16.069 57.755" stroke="black" stroke-width="0.5" stroke-miterlimit="10" stroke-linecap="round" stroke-linejoin="round"/>
<path d="M15.253 56.4608C15.253 56.4608 13.8931 56.6652 13.6891 58.0275" stroke="black" stroke-width="0.5" stroke-miterlimit="10" stroke-linecap="round" stroke-linejoin="round"/>
<path d="M14.5731 63.6131C14.5731 63.6131 16.5449 63.2044 16.6809 61.7739" stroke="black" stroke-width="0.5" stroke-miterlimit="10" stroke-linecap="round" stroke-linejoin="round"/>
<path d="M31.2999 87.1134L21.3046 84.3206C21.3046 84.3206 22.1885 67.2914 23.7524 64.4305C26.1322 59.9348 31.6398 61.9783 32.6598 67.5638C33.6117 72.8769 31.2999 87.1134 31.2999 87.1134Z" fill="#6ABD50" stroke="black" stroke-miterlimit="10" stroke-linecap="round" stroke-linejoin="round"/>
<path d="M21.5766 82.4133C21.5766 82.4133 27.0162 83.6394 30.3479 84.7293" stroke="black" stroke-width="0.5" stroke-miterlimit="10" stroke-linecap="round" stroke-linejoin="round"/>
<path d="M30.144 61.4333C30.144 61.4333 33.4077 61.7058 35.5156 63.4087" stroke="#6ABD50" stroke-width="0.5" stroke-miterlimit="10" stroke-linecap="round" stroke-linejoin="round"/>
<path d="M87.1918 104.96C87.1918 104.96 72.7088 110.069 71.3489 111.499C69.989 112.861 70.125 118.311 73.2528 120.967C76.3806 123.624 98.6829 117.63 114.594 115.859C130.505 114.088 165.522 111.567 179.733 110.818C194.012 110.137 200.539 111.976 201.763 107.548C202.987 103.121 202.919 98.3526 200.132 97.399C197.548 96.4454 148.047 88.4757 87.1918 104.96Z" fill="black" stroke="black" stroke-width="0.75" stroke-miterlimit="10" stroke-linecap="round" stroke-linejoin="round"/>
<path d="M70.329 114.496C70.329 114.496 71.009 120.422 74.6127 121.308C78.2164 122.193 121.325 114.019 146.687 113.134C172.05 112.248 194.284 111.567 194.284 111.567" stroke="white" stroke-width="0.5" stroke-miterlimit="10" stroke-linecap="round" stroke-linejoin="round"/>
<path d="M91.4075 117.493C108.27 113.406 142.88 107.617 201.151 109.251" stroke="white" stroke-width="0.5" stroke-miterlimit="10" stroke-linecap="round" stroke-linejoin="round"/>
<path d="M77.6045 121.104C77.6045 121.104 81.4802 120.15 87.3278 118.583" stroke="white" stroke-width="0.5" stroke-miterlimit="10" stroke-linecap="round" stroke-linejoin="round"/>
<path d="M81.1402 121.785C81.1402 121.785 81.4802 125.327 80.9362 129.346" stroke="white" stroke-width="0.5" stroke-miterlimit="10" stroke-linecap="round" stroke-linejoin="round"/>
<path d="M80.5283 12.7979C80.5283 12.7979 77.2645 16.6125 77.0605 20.0183" stroke="black" stroke-width="0.75" stroke-miterlimit="10" stroke-linecap="round" stroke-linejoin="round"/>
<path d="M76.7206 22.8111C76.7206 22.8111 74.2727 61.7058 80.7323 103.121" stroke="black" stroke-width="0.75" stroke-miterlimit="10" stroke-linecap="round" stroke-linejoin="round"/>
<path d="M77.4685 67.7682C77.4685 67.7682 72.1649 69.6073 72.1649 71.9914C71.9609 78.3944 72.6408 92.0859 74.0687 93.3801C75.4286 94.7424 79.7803 91.2004 79.7803 91.2004C79.7803 91.2004 85.8999 91.7453 86.5798 90.3829C87.2598 89.0206 84.676 69.6755 84.336 67.9725C83.86 66.2015 77.4685 67.7682 77.4685 67.7682Z" fill="#6ABD50" stroke="black" stroke-miterlimit="10" stroke-linecap="round" stroke-linejoin="round"/>
<path d="M187.552 76.9639C188.776 77.6451 190.544 77.9857 191.972 78.1219C190.272 71.7871 188.368 64.7029 186.396 57.6188C184.629 57.4825 182.317 57.4825 182.385 58.2999C182.317 59.7304 185.785 76.0103 187.552 76.9639Z" fill="#6ABD50" stroke="black" stroke-miterlimit="10" stroke-linecap="round" stroke-linejoin="round"/>
<path d="M76.7206 69.7436C76.7206 69.7436 76.9245 82.0046 77.8765 86.7728" stroke="black" stroke-width="0.75" stroke-miterlimit="10" stroke-linecap="round" stroke-linejoin="round"/>
<defs>
<clipPath id="clip0_406_5116">
<rect width="85.726" height="51.3325" rx="20" transform="matrix(0.995659 -0.093075 0.109992 0.993932 81 11.979)" fill="white"/>
</clipPath>
<clipPath id="clip1_406_5116">
<rect width="45.03" height="40.5476" fill="white" transform="matrix(0.996268 -0.0863108 0.102023 0.994782 90 24.2401)"/>
</clipPath>
<clipPath id="clip2_406_5116">
<rect width="58.2502" height="51.7966" fill="white" transform="matrix(0.996268 -0.0863108 0.102023 0.994782 107 13.0276)"/>
</clipPath>
</defs>
</svg>
