<svg width="342" height="378" viewBox="0 0 342 378" fill="none" xmlns="http://www.w3.org/2000/svg">
<path d="M245.463 0C253.258 0 259.925 2.76923 265.463 8.3077C271.002 13.8462 273.771 20.5128 273.771 28.3077C273.771 35.8974 271.002 42.4615 265.463 48C259.925 53.5385 253.258 56.3077 245.463 56.3077C237.668 56.3077 231.104 53.5385 225.771 48C220.233 42.4615 217.463 35.8974 217.463 28.3077C217.463 20.5128 220.233 13.8462 225.771 8.3077C231.104 2.76923 237.668 0 245.463 0ZM214.694 306.462C206.899 306.667 203.002 309.641 203.002 315.385C203.002 321.128 207.002 324 215.002 324H268.54V377.538H211.925C194.899 377.538 180.233 371.487 167.925 359.385C155.822 347.077 149.771 332.41 149.771 315.385C149.771 298.154 155.822 283.385 167.925 271.077C180.233 258.974 194.899 252.923 211.925 252.923H288.233V215.692C288.233 212.821 288.13 210.051 287.925 207.385C287.515 199.179 286.592 192.513 285.156 187.385C283.309 181.231 281.053 176.103 278.386 172C273.463 164 266.694 157.949 258.079 153.846C252.54 151.179 245.771 149.538 237.771 148.923H232.848C226.899 148.923 220.95 149.641 215.002 151.077L207.002 153.231L189.463 158.154V104L199.925 101.231L204.54 100C214.181 97.5385 224.643 96.3077 235.925 96.3077C262.181 96.3077 284.233 103.795 302.079 118.769C320.54 134.359 332.438 154.974 337.771 180.615C339.617 189.436 340.745 198.667 341.156 208.308C341.361 210.974 341.463 213.744 341.463 216.615V306.462H214.694Z" fill="#F77003"/>
<path d="M54.5477 265.228C57.0421 265.228 59.1426 266.114 60.8492 267.886C62.6215 269.658 63.5077 271.792 63.5077 274.286C63.5077 276.715 62.6215 278.815 60.8492 280.588C59.1426 282.36 57.0421 283.246 54.5477 283.246C52.0533 283.246 49.92 282.36 48.1477 280.588C46.3754 278.815 45.4892 276.715 45.4892 274.286C45.4892 271.792 46.3754 269.658 48.1477 267.886C49.92 266.114 52.0533 265.228 54.5477 265.228ZM34.8554 265.228C37.3497 265.228 39.4831 266.114 41.2554 267.886C42.9621 269.658 43.8154 271.792 43.8154 274.286C43.8154 276.715 42.9621 278.815 41.2554 280.588C39.4831 282.36 37.3497 283.246 34.8554 283.246C32.361 283.246 30.2277 282.36 28.4554 280.588C26.6831 278.815 25.7969 276.715 25.7969 274.286C25.7969 271.792 26.6831 269.658 28.4554 267.886C30.2277 266.114 32.361 265.228 34.8554 265.228ZM99.0523 220.231V237.461H87.4338C85.399 244.223 81.559 249.507 75.9138 253.314C70.1374 257.252 62.7528 259.418 53.76 259.812V259.911H38.1046C27.0769 259.911 18.2154 257.285 11.52 252.034C3.84 245.995 0 237.33 0 226.04V204.674L1.67385 203.295L2.46154 202.705L6.30154 199.652L9.55077 197.092L16.8369 191.283V225.843C16.8369 231.816 18.6092 236.149 22.1538 238.84C25.6985 241.597 30.9497 242.975 37.9077 242.975H51.0031C57.3703 242.975 62.3261 241.892 65.8708 239.726C67.0523 239.004 68.0697 238.151 68.9231 237.166L59.0769 235.886L57.3046 235.689L53.3662 235.197V217.868L58.3877 218.557L60.6523 218.754L72.96 220.231H99.0523Z" fill="#202020"/>
<path d="M132.357 139.394C134.851 139.394 136.985 140.28 138.757 142.052C140.529 143.825 141.415 145.958 141.415 148.452C141.415 150.947 140.529 153.047 138.757 154.754C136.985 156.526 134.851 157.412 132.357 157.412C129.863 157.412 127.729 156.526 125.957 154.754C124.25 153.047 123.397 150.947 123.397 148.452C123.397 145.958 124.25 143.825 125.957 142.052C127.729 140.28 129.863 139.394 132.357 139.394ZM110.991 139.394C113.485 139.394 115.618 140.28 117.391 142.052C119.097 143.825 119.951 145.958 119.951 148.452C119.951 150.947 119.097 153.047 117.391 154.754C115.618 156.526 113.485 157.412 110.991 157.412C108.496 157.412 106.363 156.526 104.591 154.754C102.818 153.047 101.932 150.947 101.932 148.452C101.932 145.958 102.818 143.825 104.591 142.052C106.363 140.28 108.496 139.394 110.991 139.394ZM144.271 220.231V237.461H99.0769V220.231H113.157V174.741L113.255 170.311H130.191V220.231H144.271Z" fill="#202020"/>
<path d="M188.339 220.428V187.148H184.499C178.526 187.148 174.194 188.92 171.502 192.465C168.745 196.009 167.367 201.26 167.367 208.218V220.428H188.339ZM205.275 170.311V237.461H144.327V220.231H150.432V208.415C150.432 197.388 153.057 188.526 158.308 181.831C164.347 174.151 173.012 170.311 184.302 170.311H205.275Z" fill="#202020"/>
<path d="M271.877 237.461H220.087V220.329H254.942V208.218C254.942 201.654 253.728 196.6 251.299 193.055C248.936 189.576 245.227 187.64 240.173 187.246L238.4 187.049L234.265 186.655V169.917L239.09 170.311L241.256 170.409C250.839 171.131 258.355 174.84 263.803 181.535C269.186 188.231 271.877 197.191 271.877 208.415V237.461Z" fill="#202020"/>
</svg>
