<svg width="12" height="13" viewBox="0 0 12 13" fill="none" xmlns="http://www.w3.org/2000/svg">
<path d="M11.8734 1.88903C11.7907 1.80681 11.6933 1.76545 11.5807 1.76545C11.5247 1.76545 11.4065 1.81146 11.2268 1.90224C11.047 1.99327 10.8561 2.09458 10.6552 2.20764C10.4538 2.31996 10.2155 2.42176 9.94042 2.51279C9.66562 2.60357 9.41112 2.64958 9.17694 2.64958C8.96062 2.64958 8.76974 2.60847 8.6053 2.526C8.05985 2.27053 7.58536 2.0799 7.18257 1.95412C6.77979 1.82859 6.34665 1.76545 5.88294 1.76545C5.08225 1.76545 4.17023 2.02582 3.14784 2.54558C2.93691 2.6508 2.78568 2.73229 2.6878 2.792L2.59065 2.07966C2.81015 1.88903 2.95183 1.61129 2.95183 1.29782C2.95183 0.723489 2.4864 0.258057 1.91207 0.258057C1.33775 0.258057 0.872314 0.723489 0.872314 1.29782C0.872314 1.67246 1.07248 1.99817 1.36956 2.18121L2.77418 12.4809C2.81602 12.7875 3.07835 13.01 3.37958 13.01C3.40699 13.01 3.43489 13.0083 3.46303 13.0046C3.79779 12.9586 4.03222 12.6505 3.98646 12.3158L3.42192 8.17604C4.44626 7.66779 5.33234 7.41158 6.07772 7.41158C6.39413 7.41158 6.7027 7.45881 7.00345 7.55424C7.30444 7.64992 7.55477 7.75368 7.75397 7.866C7.95316 7.97856 8.18832 8.08281 8.45872 8.17775C8.72961 8.27319 8.99708 8.32091 9.26112 8.32091C9.92819 8.32091 10.7272 8.06959 11.6583 7.56721C11.7752 7.50652 11.8609 7.44681 11.915 7.38833C11.969 7.32984 11.9962 7.24664 11.9962 7.13848V2.18145C11.9962 2.06913 11.9553 1.9715 11.8734 1.88903Z" fill="white"/>
</svg>
