<svg width="66" height="79" viewBox="0 0 66 79" fill="none" xmlns="http://www.w3.org/2000/svg">
<path opacity="0.1" d="M32.4516 0C29.8921 0.0515337 28.054 0.549693 26.8344 1.44294L10.1203 10.3926L0.827069 23.0338C-1.13121 26.0571 0.2602 31.8976 6.37553 28.1529L13.0749 19.3234C21.578 11.9902 38.9276 15.3553 30.6994 30.0768C26.6626 38.597 28.5522 42.7541 33.7571 44.5062L36.1276 36.5357C40.2332 27.294 47.8945 25.6277 47.5853 18.1725L66 19.4952L65.8282 0.24049L32.4516 0ZM23.1583 17.7602C20.1694 17.7087 17.232 18.9455 15.1019 20.732L8.38534 29.5614C10.2234 31.0216 12.0786 30.2314 13.9166 28.4621C16.081 29.5614 17.7645 27.8608 19.1387 24.4596C19.7056 22.1406 20.5473 20.5087 23.1583 17.7602ZM9.48473 34.251C9.41601 34.251 9.33012 34.251 9.26141 34.2682C8.69454 34.3884 8.02461 34.9897 7.57798 36.3639C7.11418 37.7381 7.01111 39.6964 7.42338 41.7921C7.83565 43.8706 8.69454 45.6399 9.65651 46.7393C10.5841 47.8215 11.443 48.1307 12.0099 48.0105C12.5939 47.9074 13.2467 47.289 13.6933 45.932C14.1571 44.5577 14.2774 42.5823 13.8651 40.5038C13.4356 38.4081 12.5767 36.6387 11.632 35.5565C10.8074 34.5946 10.0516 34.251 9.48473 34.251ZM23.6737 52.597C22.3166 52.6142 20.616 53.0436 18.9497 53.851C17.043 54.7958 15.5485 56.1013 14.7412 57.3037C13.9338 58.489 13.8651 59.3823 14.1228 59.9148C14.3804 60.4301 15.1363 60.9283 16.5792 60.997C18.0221 61.0829 19.9632 60.6878 21.87 59.743C23.7767 58.7982 25.2712 57.5099 26.0786 56.3074C26.8859 55.1221 26.9546 54.2117 26.697 53.6964C26.4393 53.1639 25.6835 52.6829 24.2405 52.6142C24.0516 52.597 23.8798 52.597 23.6737 52.597ZM6.90804 69.0191C6.10068 69.0362 5.36203 69.1565 4.70927 69.3454C3.24915 69.7749 2.40744 70.5479 2.13259 71.4583C1.84056 72.3859 2.13259 73.4853 3.11173 74.6706C4.10805 75.8387 5.7743 76.9553 7.83565 77.5737C9.87982 78.1921 11.8725 78.1749 13.3498 77.7283C14.8271 77.2988 15.6688 76.5258 15.9436 75.6154C16.2185 74.6878 15.9436 73.5884 14.9473 72.4031C13.9682 71.235 12.3019 70.1184 10.2406 69.5C9.07246 69.1565 7.93872 69.0019 6.90804 69.0191Z" fill="white"/>
</svg>
