<svg width="11" height="10" viewBox="0 0 11 10" fill="none" xmlns="http://www.w3.org/2000/svg">
<path d="M9.16022 4.88193C8.73589 5.32318 8.31944 5.7668 7.90467 6.20863C7.07618 7.09116 6.25438 7.96657 5.38986 8.80185C5.25279 8.93092 5.03592 8.92535 4.90623 8.79058L1.14666 4.88206C1.14665 4.88205 1.14665 4.88204 1.14664 4.88204C0.162285 3.85852 0.162378 2.2013 1.1466 1.1784L1.1484 1.17651C1.3789 0.933865 1.65607 0.740761 1.96306 0.608842C2.27005 0.476924 2.60051 0.40892 2.93442 0.40892C3.26832 0.40892 3.59878 0.476924 3.90577 0.608842C4.21277 0.740761 4.48993 0.933865 4.72044 1.17651L4.72042 1.17652L4.72309 1.17928L4.86018 1.3209C4.93721 1.40048 5.04326 1.44536 5.15401 1.44526C5.26476 1.44516 5.37072 1.40008 5.4476 1.32035L5.58418 1.17873L5.58418 1.17873L5.58568 1.17716C5.81687 0.934862 6.09438 0.741928 6.40155 0.609857C6.70855 0.477857 7.03891 0.409351 7.37285 0.408403C8.04268 0.40855 8.68537 0.684146 9.1595 1.17774C9.63523 1.67555 9.9004 2.33907 9.89897 3.0291L9.89898 3.03085C9.90052 3.72068 9.63562 4.38407 9.16022 4.88193ZM9.16022 4.88193C9.16034 4.8818 9.16045 4.88168 9.16057 4.88156L9.45495 5.16464M9.16022 4.88193C9.16003 4.88212 9.15985 4.88231 9.15967 4.8825L9.45495 5.16464M9.45495 5.16464C10.0036 4.59039 10.3092 3.82528 10.3074 3.02994L4.61197 9.07379C4.898 9.37099 5.37266 9.38133 5.67209 9.09705C6.54408 8.25466 7.37852 7.36584 8.21175 6.47831C8.62497 6.03816 9.03789 5.59833 9.45495 5.16464Z" fill="#F9576E" stroke="url(#paint0_radial_301_1533)" stroke-width="0.816807" stroke-linejoin="round"/>
<defs>
<radialGradient id="paint0_radial_301_1533" cx="0" cy="0" r="1" gradientUnits="userSpaceOnUse" gradientTransform="translate(8.16804e-07 -1.51455) rotate(51.6159) scale(13.8011 14.1978)">
<stop offset="0.046875" stop-color="#FD5F4A"/>
<stop offset="0.983052" stop-color="#F249A4"/>
</radialGradient>
</defs>
</svg>
