<svg width="24" height="24" viewBox="0 0 24 24" fill="none" xmlns="http://www.w3.org/2000/svg">
<path fill-rule="evenodd" clip-rule="evenodd" d="M10.5 6.576C10.5 6.396 10.5 6.306 10.438 6.261C10.376 6.216 10.293 6.243 10.128 6.297C8.77215 6.74212 7.61934 7.65592 6.87649 8.87438C6.13365 10.0928 5.84941 11.5362 6.0748 12.9453C6.30019 14.3544 7.02045 15.6371 8.10629 16.5631C9.19213 17.489 10.5724 17.9977 11.9995 17.9977C13.4265 17.9977 14.8069 17.489 15.8927 16.5631C16.9785 15.6371 17.6988 14.3544 17.9242 12.9453C18.1496 11.5362 17.8653 10.0928 17.1225 8.87438C16.3797 7.65592 15.2268 6.74212 13.871 6.297C13.706 6.243 13.624 6.217 13.562 6.261C13.5 6.306 13.5 6.396 13.5 6.576V9C13.5 9.39783 13.342 9.77936 13.0607 10.0607C12.7794 10.342 12.3978 10.5 12 10.5C11.6022 10.5 11.2206 10.342 10.9393 10.0607C10.658 9.77936 10.5 9.39783 10.5 9V6.576Z" fill="black" fill-opacity="0.25"/>
<path d="M12 9V4M18.01 5.99C19.1989 7.1787 20.0085 8.69325 20.3366 10.3421C20.6647 11.991 20.4964 13.7001 19.8531 15.2534C19.2098 16.8066 18.1203 18.1342 16.7225 19.0682C15.3246 20.0023 13.6812 20.5008 12 20.5008C10.3188 20.5008 8.67538 20.0023 7.27754 19.0682C5.87969 18.1342 4.79023 16.8066 4.14692 15.2534C3.50361 13.7001 3.33535 11.991 3.66341 10.3421C3.99148 8.69325 4.80114 7.1787 5.99 5.99" stroke="black" stroke-linecap="round"/>
</svg>
