<svg width="24" height="24" viewBox="0 0 24 24" fill="none" xmlns="http://www.w3.org/2000/svg">
<path d="M17.9149 1.12488H18.0749C19.6931 1.12488 20.5022 1.12488 21.1224 1.4348C21.6917 1.71926 22.1533 2.18084 22.4378 2.75014C22.7477 3.37039 22.7477 4.17949 22.7477 5.79769V6.5618M17.9149 22.8726H18.0749C19.6931 22.8726 20.5022 22.8726 21.1224 22.5626C21.6917 22.2782 22.1533 21.8166 22.4378 21.2473C22.7477 20.627 22.7477 19.8179 22.7477 18.1997V17.4356M5.83282 1.12488H5.67281C4.05461 1.12488 3.24551 1.12488 2.62526 1.4348C2.05596 1.71926 1.59438 2.18084 1.30992 2.75014C1 3.37039 1 4.17949 1 5.79769V6.5618M5.83282 22.8726H5.67281C4.05461 22.8726 3.24551 22.8726 2.62526 22.5626C2.05596 22.2782 1.59438 21.8166 1.30992 21.2473C1 20.627 1 19.8179 1 18.1997V17.4356" stroke="white" stroke-width="1.17555" stroke-linecap="round"/>
<rect x="4.3623" y="4.74939" width="15.1288" height="14.4985" rx="1.76333" fill="white"/>
</svg>
