<svg width="24" height="24" viewBox="0 0 24 24" fill="none" xmlns="http://www.w3.org/2000/svg">
<path fill-rule="evenodd" clip-rule="evenodd" d="M13.4247 11.6564L21.1275 14.224C23.0093 14.8512 23.9502 15.1649 23.9502 15.7412C23.9502 16.3176 23.0093 16.6312 21.1275 17.2585L2.50827 23.4649C1.18419 23.9063 0.522146 24.1269 0.17268 23.7775C-0.176788 23.428 0.043892 22.766 0.485253 21.4419L6.69167 2.82264C7.31893 0.940854 7.63256 -4.14809e-05 8.20893 -4.14305e-05C8.7853 -4.13801e-05 9.09893 0.940852 9.72619 2.82264L12.2938 10.5254L6.18763 16.6316C5.87534 16.9439 5.87534 17.4502 6.18763 17.7625C6.49992 18.0748 7.00624 18.0748 7.31853 17.7625L13.4247 11.6564Z" fill="white"/>
</svg>
