<svg width="20" height="20" viewBox="0 0 20 20" fill="none" xmlns="http://www.w3.org/2000/svg">
<path fill-rule="evenodd" clip-rule="evenodd" d="M7.65719 3.12268C7.65719 2.77865 7.37303 2.5 7.02303 2.5H7.02219L5.66469 2.50082C3.83886 2.50245 2.35303 3.96109 2.35303 5.75233V7.30167C2.35303 7.64488 2.63719 7.92436 2.98719 7.92436C3.33719 7.92436 3.62219 7.64488 3.62219 7.30167V5.75233C3.62219 4.6467 4.53886 3.747 5.66553 3.74536L7.02303 3.74455C7.37386 3.74455 7.65719 3.46589 7.65719 3.12268ZM14.3279 2.50025H13.0004C12.6504 2.50025 12.3663 2.7789 12.3663 3.12293C12.3663 3.46614 12.6504 3.74397 13.0004 3.74397H14.3279C15.4588 3.74397 16.3788 4.64613 16.3788 5.75502V7.30192C16.3788 7.64513 16.6629 7.9246 17.0129 7.9246C17.3638 7.9246 17.6471 7.64513 17.6471 7.30192V5.75502C17.6471 3.95971 16.1588 2.50025 14.3279 2.50025ZM7.69869 5.61888H12.302C12.8062 5.61888 13.2904 5.81745 13.6429 6.17129C13.9979 6.52839 14.1945 7.00807 14.1937 7.50735V8.54516C14.1895 8.66691 14.0904 8.76579 13.9662 8.76906H6.03286C5.90953 8.76497 5.81036 8.6661 5.80786 8.54516V7.50735C5.79869 6.47364 6.64536 5.6295 7.69869 5.61888Z" fill="#CDCDD0"/>
<path fill-rule="evenodd" clip-rule="evenodd" d="M18.5324 10.0342H1.46825C1.11825 10.0342 0.833252 10.3128 0.833252 10.6569C0.833252 11.0001 1.11825 11.2779 1.46825 11.2779H2.35242V14.2475C2.35242 16.0387 3.83908 17.4974 5.66492 17.499L7.02242 17.4998C7.37325 17.4998 7.65658 17.2212 7.65742 16.8771C7.65742 16.5339 7.37325 16.2553 7.02325 16.2553L5.66658 16.2545C4.53909 16.2528 3.62158 15.3531 3.62158 14.2475V11.2779H5.80742V12.1041C5.79908 13.1378 6.64492 13.9827 7.69825 13.9925H12.3016C13.3558 13.9827 14.2016 13.1378 14.1933 12.1041V11.2779H16.3791V14.2442C16.3791 15.3539 15.4591 16.2553 14.3283 16.2553H13.0008C12.6499 16.2553 12.3658 16.5339 12.3658 16.8771C12.3658 17.2212 12.6499 17.4998 13.0008 17.4998H14.3283C16.1583 17.4998 17.6474 16.0404 17.6474 14.2442V11.2779H18.5324C18.8824 11.2779 19.1666 11.0001 19.1666 10.6569C19.1666 10.3128 18.8824 10.0342 18.5324 10.0342Z" fill="white"/>
</svg>
