<svg width="24" height="24" viewBox="0 0 24 24" fill="none" xmlns="http://www.w3.org/2000/svg">
<path fill-rule="evenodd" clip-rule="evenodd" d="M10.5255 12.2936L2.82268 9.72598C0.940895 9.09872 0 8.78509 0 8.20872C0 7.63236 0.940893 7.31872 2.82268 6.69146L21.4419 0.485046C22.766 0.0436857 23.428 -0.176994 23.7775 0.172472C24.127 0.521939 23.9063 1.18398 23.4649 2.50806L17.2585 21.1273C16.6313 23.0091 16.3176 23.95 15.7413 23.95C15.1649 23.95 14.8513 23.0091 14.224 21.1273L11.6564 13.4245L17.7626 7.31834C18.0749 7.00605 18.0749 6.49973 17.7626 6.18744C17.4503 5.87515 16.944 5.87515 16.6317 6.18744L10.5255 12.2936Z" fill="white"/>
</svg>
