<svg width="145" height="139" viewBox="0 0 145 139" fill="none" xmlns="http://www.w3.org/2000/svg">
<g opacity="0.15">
<path d="M28.2826 67.8865C27.3988 68.4644 26.7807 69.3697 26.5644 70.4033C26.3481 71.4368 26.5512 72.514 27.1291 73.3978C27.7069 74.2816 28.6122 74.8997 29.6458 75.116C30.6793 75.3323 31.7565 75.1292 32.6403 74.5513L50.4132 62.9308C51.297 62.3529 51.915 61.4476 52.1314 60.4141C52.3477 59.3805 52.1446 58.3033 51.5667 57.4195C50.9889 56.5357 50.0836 55.9177 49.05 55.7013C48.0164 55.485 46.9393 55.6881 46.0555 56.266L28.2826 67.8865Z" fill="white"/>
<path fill-rule="evenodd" clip-rule="evenodd" d="M99.7937 27.498C99.5066 27.6603 99.2044 27.8578 98.8934 28.0612L86.5724 36.1172C76.4818 42.7147 72.8876 56.0758 79.4648 66.1352C86.042 76.1946 99.723 78.2605 109.814 71.6629L122.135 63.6069C122.446 63.4036 122.748 63.206 123.012 63.0081C126.95 60.0779 128.539 54.5926 125.999 50.0378C125.831 49.7418 125.63 49.4352 125.444 49.1508L113.463 30.827C113.277 30.5426 113.077 30.2361 112.873 29.9633C109.72 25.8094 104.06 25.0698 99.7937 27.498ZM100.209 59.3398C102.803 57.6432 103.521 54.1423 101.81 51.5252C100.096 48.9037 96.6039 48.1614 94.009 49.858C91.4097 51.5575 90.6879 55.0613 92.399 57.6783C94.113 60.2998 97.6093 61.0393 100.209 59.3398Z" fill="white"/>
<path opacity="0.5" d="M99.5746 27.6285C96.1436 22.3811 92.2673 16.8794 86.2822 15.0398C85.6965 14.8592 85.1029 14.7055 84.5032 14.5793C79.0022 13.4317 73.8211 14.7135 68.1546 17.4163C62.6449 20.0484 56.18 24.2754 48.0134 29.615L38.6293 35.7507C30.4627 41.0903 23.9934 45.3202 19.3726 49.3119C14.6241 53.4187 11.372 57.6509 10.2171 63.1503C9.06955 68.6514 10.3514 73.8325 13.0542 79.4989C15.6907 85.0058 19.9177 91.4706 25.2573 99.6373L25.5827 100.135C30.9223 108.302 35.1522 114.771 39.141 119.387C43.2478 124.136 47.48 127.388 52.9794 128.543C58.4805 129.69 63.6616 128.408 69.328 125.706C74.8378 123.074 81.3026 118.847 89.4693 113.507L98.8533 107.371C107.02 102.032 113.489 97.8017 118.106 93.8129C122.854 89.7061 126.106 85.474 127.261 79.9745C127.566 78.5078 127.707 77.0117 127.681 75.5139C127.589 71.0074 125.266 66.9316 122.803 63.1638L122.139 63.604L109.814 71.6629C99.723 78.2605 86.0421 76.1946 79.4648 66.1352C72.8876 56.0758 76.4819 42.7148 86.5724 36.1172L98.8934 28.0612C99.1245 27.9101 99.3555 27.7591 99.5746 27.6285Z" fill="white"/>
</g>
</svg>
