<svg width="22" height="22" viewBox="0 0 22 22" fill="none" xmlns="http://www.w3.org/2000/svg">
<g clip-path="url(#clip0_827_2519)">
<path d="M22 10.717C22 16.6354 17.1648 21.4333 11.1991 21.4333C9.3059 21.4333 7.5275 20.949 5.97939 20.1011L0 22L1.94913 16.2487C0.966316 14.6346 0.4003 12.7393 0.4003 10.7163C0.401017 4.79786 5.23475 0 11.2005 0C17.1656 0.00143477 22 4.79858 22 10.717ZM11.1984 1.70881C6.19174 1.70881 2.11915 5.75055 2.11915 10.7191C2.11915 12.6905 2.76193 14.5155 3.84876 16.0005L2.7153 19.3457L6.20322 18.2373C7.63798 19.1785 9.35468 19.7266 11.1984 19.7266C16.205 19.7266 20.279 15.6856 20.279 10.717C20.2804 5.75055 16.2057 1.70881 11.1984 1.70881ZM16.6533 13.1855C16.5859 13.0772 16.4094 13.0112 16.1454 12.8792C15.8822 12.7472 14.5787 12.1123 14.3369 12.0262C14.093 11.938 13.9165 11.8935 13.74 12.1568C13.5657 12.4201 13.0578 13.0112 12.9021 13.1877C12.7479 13.3634 12.5937 13.3857 12.329 13.2558C12.0642 13.1224 11.2106 12.8469 10.199 11.9523C9.41207 11.255 8.88049 10.3963 8.72697 10.133C8.5713 9.87048 8.71119 9.72844 8.84247 9.59787C8.96084 9.47951 9.10718 9.29083 9.2399 9.1366C9.37262 8.98379 9.41638 8.87547 9.50461 8.69971C9.59142 8.52395 9.54766 8.37115 9.48238 8.23843C9.41638 8.10643 8.88766 6.81514 8.66599 6.2893C8.44576 5.76418 8.22552 5.85098 8.07056 5.85098C7.91633 5.85098 7.73985 5.82946 7.56337 5.82946C7.3869 5.82946 7.09995 5.89331 6.85819 6.15659C6.61643 6.41986 5.93204 7.05475 5.93204 8.34747C5.93204 9.64163 6.87971 10.8892 7.01242 11.0642C7.14586 11.2385 8.84462 13.9782 11.5355 15.0299C14.2279 16.0809 14.2279 15.7301 14.7128 15.6856C15.1992 15.6411 16.2796 15.0507 16.4991 14.4381C16.7201 13.8225 16.7201 13.2953 16.6533 13.1855Z" fill="white"/>
</g>
<defs>
<clipPath id="clip0_827_2519">
<rect width="22" height="22" fill="white"/>
</clipPath>
</defs>
</svg>
